<svg xmlns="http://www.w3.org/2000/svg" viewBox="0 0 1000 431.7" style="enable-background:new 0 0 1000 431.7" xml:space="preserve"><path d="M-31.7-53.5h69.2v-101h1159.8v101h67V405h-217.6l-1-80H799.5c-2.4.8-4.8 1.7-7.1 2.5-14 5.1-27.5 11.1-40.9 17.4-1.9.9-4 1.8-5.8 2.9-3.2 2-7.1 2-10.3-.1-3.4-2.2-5.8-7.3-7.4-10.8-.5-1.2-1-2.4-1.5-3.7-1.6 2.9-3.1 5.8-4.4 8.3-2.5 4.9-5.1 10-7.2 15.1-1.6 3.8-3.4 8.4-4.5 12.5-1.3 5-6.3 8.1-11.4 6.9-3.5-.8-7.3-3.3-10.1-5.5-6.1-5.1-7.3-12.5-6-19.9.5-3.2 1.6-6.4 2.9-9.6-8.4 7.7-20.3 13.7-29.8 11.8-3.1-.6-5.9-2-8.4-3.9-4 7.3-7.4 15.8-10.5 23.5-1.7 4.4-6.3 6.8-10.9 5.8-3.3-.7-7.1-2.2-9.9-4.2-6.2-4.3-7.8-12.6-6-19.6.4-1.7 1.2-3.8 2.2-5.9-8.4 11.1-22.3 18.5-36.3 14.7-7.2-1.9-12.2-6.2-15-11.9-4.2 2.6-8.5 5.1-12.6 7.6-7.7 4.7-20.2 7.3-27-.4-3.5-4-3.8-9.4-2.8-14.5-1.9 1-3.5 2-4.2 2.4-4.5 2.4-10 7.9-13.4 11.8-.5.6-1 1.1-1.6 1.5-.6.7-1.3 1.5-1.9 2.2-4.5 5.5-8.5 7.7-15.5 6.4-5.1-.9-7.5-3-10.5-6.9-3.1-4-4.4-7.4-4.2-12.5v-.9c-4.7 2.8-9.5 5.4-14.4 7.8-8.1 4.1-17.4 8.6-25.9 11.5-11.6 4-28.2 10-39.7 3.6-9.4-5.3-14-14.5-14.7-25-.3-4.5.2-9.8 1.4-14.2.5-2.2 1.3-4.5 2.1-6.8h-184l-.8 80H-31.7V-53.5zm475.6 378.6h-25.1c-2.6 4.5-4.8 9.2-6.4 13.6 3.6-.8 10.3-3.8 13.4-5.2 6.1-2.7 12.2-5.5 18.1-8.4z" style="fill-rule:evenodd;clip-rule:evenodd;fill:red" transform="matrix(.77166 0 0 .77166 24.492 119.152)"/><path d="M144.1-53h85.8c22.3 0 40.6 18.3 40.6 40.6v74.5c0 5.4-4.5 8.5-4.5 8.5l-20.7 16s16.8 11.7 20.8 14c4.1 2.3 4.3 10.7 4.3 10.7v69.8c0 22.3-18.3 40.6-40.6 40.6H144V-53zm752.3 352.6c-2-4.6-1.7-6.3-5.2-6.9-3.5-.6-23.5-4.7-46.9-1-23.4 3.6-59.7 13.9-67.1 16.6-7.4 2.7-9.7 3.9-9.2-.1s3.4-12.1-.8-14.8c-4.2-2.7-8.2-5.7-15.1-4.4-6.9 1.3-11.4 4.4-11.4 4.4s1.8-5.5-.2-7.9c-2-2.5-3.1-3.4-5.4-.9-2.2 2.5-15.4 11-27.1 16.1-11.8 5.1-16.5 6.9-16.5 6.9s-3.8-7-8.7-8.4c-4.8-1.4-9.9-2.5-13.8.3l-3.9 2.8-1.2-.6s1.5-4.5.8-6.6c-.7-2-1.6-4.1-2.5-3.3-.9.8-11.2 9.4-21.4 13-10.3 3.6-23 6.8-25.3 6.4-2.4-.4-3.4-2.5-2.4-3.9s2.4-3.8 1.3-6.5c-1.1-2.7-4.6-5.8-13-3.2-8.4 2.6-13.1 7.9-20 14.4s-17.4 13.1-22.8 15.9c-5.3 2.7-8.1 3.6-8.1 1.5 0-4.2 2.4-6.1 3.3-8.7 1-2.5 1.3-5.2-.2-9.5-.5-1.4-3.1-4.2-11.3-1.8-8.2 2.4-17.5 6-22.4 9.2-4.9 3.2-5.6 3.3-5.6 3.3s13.8-18.2 25.9-30.9c12-12.7 20.5-21.1 20.5-21.1s1.5-2.8.8-3.7c-.7-.9-3.2-6.7-5.6-8.3-2.4-1.6-3.4-3.7-6.9-.6-3.4 3.1-18.2 20.7-23.4 25.5-5.3 4.9-25.4 20.9-33.6 26.9-14 10.1-71.2 38.4-79.1 38.6-7.9.2-12.3-2.3-10.1-9.8 2.2-7.5 9.1-23.2 21.7-36.8 13.2-14.2 25-21.2 31-24.2 7.1-3.6 11-1.7 13.4.2 2.4 1.9 3.3 7.9 5.6 8.5 2.4.6 5.2-1.2 6.6-4.2 1.5-3 1.5-7.2-1.5-11.4-3.1-4.2-5.1-8.6-12.2-10.4-7.1-1.8-13.7-3.1-22.3 1.1-8.6 4.3-29.2 19.4-40.5 34.3-17.1 22.5-20.7 38.7-20.7 38.7s-5.9 20.5 8.7 28.6c8.2 4.6 24.6-1.7 32-4.2 7.4-2.6 27.3-11.6 39.5-19.1 12.2-7.5 26.8-17.3 26.8-17.3s-.1 2.1-.9 3.3c-.8 1.2-4.3 5-7.4 10.8-3.1 5.8-5 9.7-5.1 13-.1 3.3.7 4.6 2.3 6.6 1.5 2 2.1 2.9 4.6 3.3 2.5.4 3.5.6 6.5-3.1s3.5-3.8 3.5-3.8 8.3-9.7 16.1-13.9c7.8-4.2 14.7-9.1 20.5-7.6 4.7 1.2 1.4 4.7-.5 9.2-1.8 4.5-3.4 10.4-1.4 12.7 2 2.3 8.3 2.6 14.9-1.5 6.6-4 15.5-9.4 19-11.9s5-3.8 5-.3c.1 3.5.7 12.6 10.9 15.4 10.2 2.7 20.6-3.2 27-12.2 6.4-9.1 9.8-19.5 9.8-19.5s4.9 1 13.1-1.4 12.2-4.6 12.2-4.6l-.7 2-14.1 24.9s-5.4 10-6.3 13.5c-.9 3.5-.3 7.6 2.3 9.4 2.5 1.8 6.5 2.7 6.5 2.7s6.3-15.8 11-24.6c4.8-8.8 8-12.8 8-12.8s2.5 10.4 10.5 12c8 1.6 23.1-8.1 27.8-17.3l4.7-9.2s6.2-.5 12.3-3.2c6.2-2.8 12.2-6.1 12.2-6.1s-11 15.2-16.7 28.6c-5.7 13.4-5.4 12.5-6 15.9-.6 3.4-.8 8.1 2.7 11.1 3.5 2.9 6.2 3.6 6.2 3.6s1.2-5 4.9-13.8c3.6-8.8 13.1-27.3 17.4-33.1 4.3-5.8 15.1-16.6 21.2-17.9 6.1-1.2 9.7-1.4 10.1 1 .4 2.4-.7 6.8-2.9 8-2.2 1.1-15.4 8.7-15.4 8.7l-2.3 1.3s-.5 5.9 2.3 11.9c2.8 6.1 4 6.9 4 6.9s.9-.6 6.9-3.4 45.4-21.7 70-25.9c24.6-4.2 42.1-6.1 54.6-4.2 12.5 2 18 3.3 18 3.3s4.3 1.5 5.5.2c1-1.8 2.7-6.1.7-10.7zm-296 30.5c-4.7 8-11.3 10.9-13.5 10.5-2.2-.4-4.8-.6-4.1-6.5.7-5.8 8-13 12.7-17.2 4.7-4.2 7.7-2.1 7.7-2.1 2.2 2.9 1.9 7.2-2.8 15.3zm71.4-9.5c-2.3 3.1-6.2 5.7-11.2 8.1-3.3 1.5-6.4-.2-6.4-.2s-1.4-3.5 2.8-9.5c3.4-5 8.7-7 12.5-8.4 4.2-1.6 5.9.3 5.9.3.4 3.6-1.3 6.6-3.6 9.7zM200.1-140.9H1183.8v453.3H910.5c.7-2.1 1.2-4.2 1.5-6.2h265.9v-440.9H57.1v440.9H383c-.9 1.6-2.1 3.9-3.1 6.2H51.2v-453.3H200.1zM192.2-6.3h18.7c6.2 0 11.2 5.1 11.2 11.2v48.5c0 6.2-5.1 11.2-11.2 11.2h-18.7V-6.3zm0 110.7h18.7c6.2 0 11.2 5.1 11.2 11.2v48.5c0 6.2-5.1 11.2-11.2 11.2h-18.7v-70.9zM295.9-53h90.2c19.9 0 36.1 16.3 36.1 36.1v79c0 5.4-4.5 8.5-4.5 8.5l-20.7 16s19.5 11.7 23.5 14c4.1 2.3 4.3 10.7 4.3 10.7v110.4h-49.5V117c0-6.6-5.4-12.1-12.1-12.1h-20.1v116.9h-47.3V-53zm47.2 46.7h18.7C368-6.3 373-1.2 373 4.9v48.5c0 6.2-5.1 11.2-11.2 11.2h-18.7V-6.3zM480.5-53H546l37.7 274.8h-48.2l-5.2-47.6h-34.1l-5.2 47.6h-48.2L480.5-53zm32.7 72.3-11.8 107.4H525L513.2 19.3zM687.3-53h48.2v274.8h-48.2V98.7h-39.1v123.1H600V-53h48.2V53.8h39.1V-53zm74.2 0h64.1l28.7 124.9L883-53h63v274.8h-47.2V40.9l-31.6 180.9H841.6L808.7 34.5v187.4h-47.2V-53zm240.4 0h65.5l37.7 274.8h-48.2l-5.2-47.6h-34.1l-5.2 47.6h-48.2L1001.9-53zm32.7 72.3-11.8 107.4h23.6l-11.8-107.4zM-15.3-40.8h56.5v7.3h-48V385h174.5L66.3 319.7h13l89.1 56.6v-56.6h8.5v72.6H-15.3V-40.8zm1265.6 0h-56.5v7.3h48V385h-174.5l101.4-65.3h-13l-89.1 56.6v-56.6h-8.5v72.6h192.1V-40.8z" style="fill-rule:evenodd;clip-rule:evenodd;fill:#fff" transform="matrix(.77166 0 0 .77166 24.492 119.152)"/></svg>