<?xml version="1.0" standalone="no"?>
<!DOCTYPE svg PUBLIC "-//W3C//DTD SVG 20010904//EN"
 "http://www.w3.org/TR/2001/REC-SVG-20010904/DTD/svg10.dtd">
<svg version="1.0" xmlns="http://www.w3.org/2000/svg"
 width="300.000000pt" height="202.000000pt" viewBox="0 0 300.000000 202.000000"
 preserveAspectRatio="xMidYMid meet">

<g transform="translate(0.000000,202.000000) scale(0.100000,-0.100000)"
fill="#000000" stroke="none">
<path d="M1398 2013 c7 -3 16 -2 19 1 4 3 -2 6 -13 5 -11 0 -14 -3 -6 -6z"/>
<path d="M1249 1953 c-13 -16 -12 -17 4 -4 9 7 17 15 17 17 0 8 -8 3 -21 -13z"/>
<path d="M1033 1943 c9 -2 23 -2 30 0 6 3 -1 5 -18 5 -16 0 -22 -2 -12 -5z"/>
<path d="M969 1913 l-24 -28 30 25 c17 14 32 26 34 28 2 1 0 2 -6 2 -5 0 -20
-12 -34 -27z"/>
<path d="M1130 1930 c8 -5 20 -10 25 -10 6 0 3 5 -5 10 -8 5 -19 10 -25 10 -5
0 -3 -5 5 -10z"/>
<path d="M941 1864 c0 -11 3 -14 6 -6 3 7 2 16 -1 19 -3 4 -6 -2 -5 -13z"/>
<path d="M875 1754 l-50 -46 53 42 c45 36 59 51 50 50 -2 0 -25 -21 -53 -46z"/>
<path d="M1778 1712 c-12 -15 -31 -39 -40 -52 -15 -22 -17 -23 -17 -6 -1 11 7
29 16 40 14 16 12 16 -9 -3 -17 -15 -44 -25 -75 -29 -35 -4 -42 -7 -28 -12 16
-6 9 -11 -34 -24 -62 -18 -81 -20 -81 -7 0 5 21 12 48 16 37 6 43 9 27 15 -18
7 -18 9 8 19 16 6 41 11 57 11 16 0 31 4 34 8 2 4 -19 5 -47 2 -64 -7 -180 -4
-228 5 -40 8 -149 -16 -186 -41 -18 -11 -23 -24 -23 -54 0 -29 -5 -42 -19 -50
-34 -17 -51 -2 -51 45 0 38 -3 44 -30 55 -45 19 -110 7 -137 -25 -21 -23 -23
-37 -23 -126 0 -104 -13 -150 -45 -163 -19 -7 -51 8 -58 26 -4 10 -6 10 -6 1
-1 -7 10 -20 24 -29 23 -15 27 -15 60 5 20 12 37 21 38 21 4 0 -15 -245 -19
-249 -9 -10 -44 34 -44 56 0 14 -4 21 -10 18 -5 -3 -10 -17 -10 -30 0 -46 111
-97 235 -108 33 -3 50 -3 38 -1 -20 5 -23 12 -23 49 0 40 2 44 28 48 l27 4
-27 2 c-31 1 -38 17 -10 24 15 4 15 5 0 6 -14 1 -16 12 -13 82 3 68 1 80 -12
77 -11 -2 -17 -16 -18 -43 -11 -169 -16 -230 -20 -233 -2 -2 -25 3 -52 10
l-48 14 0 141 c0 78 -3 144 -7 148 -3 4 -2 21 3 38 5 18 9 51 9 74 0 25 5 43
11 43 9 0 8 4 0 14 -15 17 -4 71 19 91 15 13 27 15 62 8 l43 -9 -4 -59 c-2
-33 -8 -63 -15 -67 -6 -5 0 -8 16 -8 20 0 25 4 21 18 -4 16 1 18 39 16 24 -2
62 -3 86 -3 49 -1 58 -20 10 -22 -33 -1 -33 -1 5 -9 60 -11 266 -3 332 13 37
10 65 12 75 7 8 -5 11 -10 5 -10 -5 0 -4 -4 4 -9 11 -7 3 -12 -27 -22 -44 -13
-53 -25 -26 -36 13 -5 13 -7 2 -14 -10 -7 -10 -9 2 -10 10 0 8 -3 -5 -9 l-20
-9 20 -1 c13 -1 5 -7 -20 -15 -22 -8 -31 -13 -20 -13 30 0 95 26 70 28 l-20 1
20 9 20 9 -20 1 -20 1 20 9 20 9 -20 1 -20 1 20 9 20 9 -20 1 c-18 1 -17 2 4
11 13 5 26 7 29 4 3 -3 -1 -5 -9 -5 -11 0 -11 -2 1 -10 13 -9 13 -10 0 -10
-13 0 -13 -1 0 -10 13 -9 13 -10 0 -10 -13 0 -13 -1 0 -10 13 -9 13 -10 0 -10
-12 0 -12 -2 -2 -9 17 -10 -46 -37 -110 -47 -34 -6 -38 -9 -23 -15 12 -5 -5
-6 -40 -4 -38 3 -51 2 -35 -3 22 -7 19 -9 -24 -15 -72 -10 -128 -9 -121 3 4 6
-5 10 -20 10 -14 0 -24 -4 -20 -9 3 -6 -14 -12 -37 -14 l-43 -4 43 -1 c52 -2
55 -19 5 -25 l-38 -4 38 -1 c40 -2 52 -21 15 -23 -21 -1 -22 -1 -3 -7 11 -4
21 -15 21 -24 2 -15 -8 -18 -60 -20 l-61 -2 55 -3 c78 -6 88 -23 15 -25 -53
-1 -55 -2 -15 -5 70 -6 81 -16 25 -23 l-50 -7 43 -1 c52 -2 56 -19 5 -25 l-38
-4 38 -1 c43 -2 50 -19 10 -25 l-28 -4 28 -2 c15 0 27 -5 27 -11 0 -9 -25 -15
-95 -23 -16 -2 34 -5 112 -6 165 -1 272 11 364 43 64 22 75 20 56 -11 -5 -8
-3 -13 5 -13 16 -1 -7 -15 -57 -36 -19 -8 -35 -10 -35 -6 0 5 18 14 41 21 23
7 39 14 37 17 -3 2 -26 -3 -51 -12 -26 -9 -82 -22 -125 -29 -42 -7 -65 -13
-51 -14 15 -1 50 4 80 9 33 6 56 7 62 1 6 -6 27 -3 57 8 47 18 55 14 36 -18
-7 -11 -5 -13 7 -8 10 3 17 4 17 2 0 -7 -62 -37 -105 -51 -22 -7 -32 -13 -23
-13 10 -1 41 8 70 19 37 13 47 15 33 4 -25 -19 -106 -43 -167 -51 -27 -3 -48
-9 -48 -12 0 -3 -26 -5 -57 -5 l-58 2 50 -7 50 -7 -75 -4 c-41 -3 -76 -2 -78
3 -6 12 -43 8 -58 -8 -12 -12 -13 -15 -2 -17 7 -1 -16 -4 -52 -8 l-65 -7 63
-1 c79 -2 82 -22 3 -22 -95 0 -156 19 -103 33 16 4 16 5 -1 6 -10 0 -17 7 -16
14 3 27 -2 37 -21 37 -19 0 -26 -19 -21 -57 2 -16 -8 -16 -65 -2 -42 11 -44
13 -44 49 0 48 -26 62 -35 19 -4 -16 -10 -29 -15 -29 -16 0 -32 31 -28 55 6
30 -7 33 -23 4 -9 -17 -7 -25 12 -45 54 -57 229 -94 449 -94 207 0 384 34 441
86 11 9 19 12 19 6 0 -6 -8 -17 -19 -24 -10 -7 -17 -20 -16 -28 2 -10 -7 -16
-24 -17 l-26 -1 25 14 c33 18 21 18 -21 -1 -19 -8 -27 -14 -18 -15 8 0 24 -7
35 -16 16 -13 16 -15 2 -10 -10 3 -26 9 -35 12 -10 3 -7 -2 7 -10 14 -8 19
-15 11 -16 -8 0 -12 -3 -9 -6 8 -7 47 13 76 39 17 16 22 31 22 69 l0 49 33
-23 c48 -35 116 -32 156 6 17 16 33 44 37 62 14 73 -64 150 -128 126 -71 -26
3 64 155 192 70 58 118 121 110 143 -5 12 -11 6 -26 -22 -19 -38 -88 -111
-200 -212 -87 -78 -117 -165 -82 -232 16 -31 33 -41 73 -41 35 0 47 9 66 45
14 26 16 27 16 8 0 -12 -11 -34 -24 -50 -19 -22 -32 -28 -65 -28 -59 0 -102
45 -109 113 -8 88 29 140 197 281 62 51 114 119 106 138 -2 8 0 11 5 8 6 -3
10 -1 10 4 0 6 -4 11 -10 11 -5 0 -7 8 -3 18 3 9 -7 -1 -22 -23 -43 -62 -64
-83 -150 -148 -44 -33 -96 -78 -116 -99 l-36 -38 -16 24 c-24 36 -34 214 -14
241 13 16 18 18 28 8 16 -16 59 -17 59 -1 0 7 -12 24 -26 39 -20 21 -28 42
-34 95 -9 75 1 110 42 138 12 9 18 16 12 16 -16 0 -61 -52 -75 -85 -6 -17 -13
-24 -16 -17 -6 16 42 98 65 111 9 6 12 11 5 11 -6 0 -22 -13 -35 -28z m-408
-52 c12 -8 9 -10 -12 -10 -16 0 -28 5 -28 10 0 13 20 13 40 0z m-70 -27 c2 -2
-2 -8 -10 -13 -10 -7 -11 -10 -2 -10 6 0 12 -9 12 -20 0 -17 -7 -20 -39 -20
-39 0 -39 0 -31 30 13 44 20 51 43 44 12 -3 24 -8 27 -11z m190 7 c0 -5 -21
-11 -47 -12 l-48 -1 55 -7 c62 -7 51 -18 -25 -23 -46 -3 -44 -4 15 -5 90 -3
58 -22 -37 -22 -66 0 -73 2 -73 20 0 15 7 20 28 21 20 1 22 3 7 6 -47 10 -48
17 -5 23 72 11 130 11 130 0z m165 -16 c-11 -8 -38 -19 -60 -25 -22 -6 -48
-12 -57 -15 -10 -3 -18 -1 -18 4 0 6 21 15 48 21 26 5 58 14 72 20 35 14 38
13 15 -5z m15 -20 c0 -8 -62 -32 -109 -43 -23 -5 -41 -5 -41 0 0 5 12 11 28
15 15 3 45 12 67 19 46 16 55 17 55 9z m97 -56 c-2 -13 -4 -3 -4 22 0 25 2 35
4 23 2 -13 2 -33 0 -45z m-102 22 c-7 -11 -99 -40 -128 -40 -32 0 -14 9 54 29
78 23 82 23 74 11z m-165 -9 c0 -12 -51 -21 -116 -21 -83 0 -64 19 24 23 42 1
80 4 85 5 4 1 7 -2 7 -7z m-200 -11 c0 -5 -21 -10 -46 -10 -27 0 -43 4 -39 10
3 6 24 10 46 10 21 0 39 -4 39 -10z m200 -19 c0 -10 -59 -21 -122 -21 -73 0
-57 19 20 23 37 2 75 4 85 5 9 1 17 -2 17 -7z m166 -193 c-18 -10 -112 -38
-130 -38 -23 0 11 16 62 31 70 20 95 23 68 7z m14 -23 c0 -3 -124 -45 -136
-45 -2 0 -4 4 -4 9 0 5 26 16 58 24 62 16 82 19 82 12z m-175 -14 c-15 -14
-175 -26 -175 -13 0 6 27 13 63 15 34 2 75 4 92 5 18 1 25 -2 20 -7z m165 -20
c-24 -14 -130 -40 -130 -31 0 8 94 37 125 39 16 0 17 -1 5 -8z m-165 -10 c-14
-13 -175 -24 -175 -12 0 9 39 14 145 19 23 1 35 -2 30 -7z m171 -10 c-8 -12
-93 -41 -119 -41 -32 0 -14 9 54 29 35 10 65 19 67 20 2 0 1 -3 -2 -8z m-176
-21 c-14 -8 -140 -15 -165 -9 -16 3 76 16 130 17 34 1 45 -2 35 -8z m175 -10
c-6 -10 -98 -40 -123 -40 -29 0 0 14 61 31 34 9 63 17 65 18 2 0 0 -3 -3 -9z
m-185 -20 c-35 -11 -171 -11 -145 0 11 5 54 8 95 8 52 0 67 -2 50 -8z m185
-10 c-5 -9 -35 -18 -110 -36 -52 -12 -17 10 43 27 71 21 75 21 67 9z m-165 -9
c0 -11 -60 -21 -129 -21 -82 0 -50 18 39 23 41 1 78 4 83 5 4 1 7 -2 7 -7z
m165 -20 c-10 -9 -110 -41 -128 -41 -23 0 9 16 61 31 70 20 79 22 67 10z
m-165 -10 c0 -10 -73 -21 -138 -21 -72 0 -37 18 43 23 39 1 76 4 83 5 6 1 12
-2 12 -7z m156 -23 c-28 -16 -116 -37 -116 -28 0 4 26 15 58 23 70 18 83 20
58 5z m-156 -7 c0 -4 -28 -11 -61 -15 -84 -8 -109 -8 -109 4 0 5 28 11 63 13
34 2 72 4 85 5 12 1 22 -2 22 -7z m140 -28 c-38 -16 -109 -30 -99 -19 8 8 96
33 119 34 8 0 -1 -6 -20 -15z m-145 -2 c-15 -13 -165 -24 -165 -12 0 9 33 13
140 19 20 1 30 -2 25 -7z m460 -32 c7 -7 -4 -8 -31 -4 -31 5 -45 3 -57 -10
-40 -39 -15 -109 42 -118 l26 -4 -28 -2 c-33 -1 -77 38 -77 68 0 31 20 68 44
80 23 11 65 6 81 -10z m-465 2 c-22 -12 -160 -22 -160 -11 0 9 46 15 130 18
29 1 40 -2 30 -7z m97 -7 c-3 -3 -12 -4 -19 -1 -8 3 -5 6 6 6 11 1 17 -2 13
-5z m-134 -21 c-7 -2 -19 -2 -25 0 -7 3 -2 5 12 5 14 0 19 -2 13 -5z m192
-168 c-39 -17 -102 -30 -92 -19 8 8 88 31 112 32 6 0 -3 -5 -20 -13z m0 -30
c-39 -17 -102 -30 -92 -19 9 9 82 31 107 32 8 0 2 -5 -15 -13z m-160 -5 c-16
-4 -59 -8 -95 -8 -53 1 -59 2 -30 8 49 10 166 10 125 0z m25 -19 c0 -10 -73
-21 -138 -21 -75 0 -35 19 48 23 41 1 78 4 83 5 4 1 7 -2 7 -7z m225 -29 c-3
-3 -11 0 -18 7 -9 10 -8 11 6 5 10 -3 15 -9 12 -12z"/>
<path d="M1835 1692 c-12 -9 -27 -26 -35 -37 -8 -11 2 -4 23 15 20 19 37 36
37 38 0 5 -5 1 -25 -16z"/>
<path d="M811 1654 c0 -11 3 -14 6 -6 3 7 2 16 -1 19 -3 4 -6 -2 -5 -13z"/>
<path d="M821 1620 c0 -14 28 -72 29 -59 0 4 -7 22 -15 40 -8 19 -14 27 -14
19z"/>
<path d="M848 1510 c-4 -25 -10 -58 -13 -75 -3 -16 2 -8 10 18 9 27 15 61 13
75 -3 21 -5 16 -10 -18z"/>
<path d="M1018 1523 c7 -3 16 -2 19 1 4 3 -2 6 -13 5 -11 0 -14 -3 -6 -6z"/>
<path d="M1058 1513 c7 -3 16 -2 19 1 4 3 -2 6 -13 5 -11 0 -14 -3 -6 -6z"/>
<path d="M911 1484 c0 -11 3 -14 6 -6 3 7 2 16 -1 19 -3 4 -6 -2 -5 -13z"/>
<path d="M1178 1493 c12 -2 30 -2 40 0 9 3 -1 5 -23 4 -22 0 -30 -2 -17 -4z"/>
<path d="M1588 1493 c7 -3 16 -2 19 1 4 3 -2 6 -13 5 -11 0 -14 -3 -6 -6z"/>
<path d="M1538 1483 c7 -3 16 -2 19 1 4 3 -2 6 -13 5 -11 0 -14 -3 -6 -6z"/>
<path d="M1463 1473 c9 -2 23 -2 30 0 6 3 -1 5 -18 5 -16 0 -22 -2 -12 -5z"/>
<path d="M1585 1470 c4 -6 11 -8 16 -5 14 9 11 15 -7 15 -8 0 -12 -5 -9 -10z"/>
<path d="M1021 1467 c2 -1 13 -9 24 -17 19 -14 19 -14 6 3 -7 9 -18 17 -24 17
-6 0 -8 -1 -6 -3z"/>
<path d="M1538 1463 c7 -3 16 -2 19 1 4 3 -2 6 -13 5 -11 0 -14 -3 -6 -6z"/>
<path d="M1463 1453 c9 -2 23 -2 30 0 6 3 -1 5 -18 5 -16 0 -22 -2 -12 -5z"/>
<path d="M1180 1435 c-13 -16 -6 -65 10 -65 6 0 5 8 -1 19 -17 26 -4 51 26 51
30 0 43 -25 26 -51 -6 -11 -7 -19 -1 -19 16 0 23 49 10 65 -7 8 -23 15 -35 15
-12 0 -28 -7 -35 -15z"/>
<path d="M1375 1430 c-8 -24 2 -60 17 -60 7 0 6 5 -2 15 -6 8 -9 23 -5 35 10
30 59 24 63 -7 3 -18 10 -23 30 -22 l27 1 -25 8 -25 8 25 2 25 2 -25 7 c-23 7
-23 8 -5 13 16 4 16 5 -3 3 -12 -1 -25 2 -28 6 -3 5 -18 9 -34 9 -20 0 -31 -6
-35 -20z"/>
<path d="M1538 1443 c7 -3 16 -2 19 1 4 3 -2 6 -13 5 -11 0 -14 -3 -6 -6z"/>
<path d="M1571 1433 c-1 -14 -9 -23 -23 -26 l-23 -4 23 -2 c24 -1 38 19 29 41
-3 7 -6 3 -6 -9z"/>
<path d="M1024 1425 c-4 -8 -11 -12 -18 -8 -6 3 -7 2 -3 -2 14 -16 33 -13 34
6 2 23 -5 25 -13 4z"/>
<path d="M1605 1430 c-3 -5 -1 -10 4 -10 6 0 11 5 11 10 0 6 -2 10 -4 10 -3 0
-8 -4 -11 -10z"/>
<path d="M1538 1423 c7 -3 16 -2 19 1 4 3 -2 6 -13 5 -11 0 -14 -3 -6 -6z"/>
<path d="M1431 1413 c-1 -6 -9 -13 -18 -15 -11 -2 -14 -6 -8 -10 16 -10 38 7
32 23 -3 9 -6 9 -6 2z"/>
<path d="M1211 1401 c-8 -5 -9 -11 -3 -15 5 -3 15 1 22 9 14 16 3 20 -19 6z"/>
<path d="M1588 1393 c7 -3 16 -2 19 1 4 3 -2 6 -13 5 -11 0 -14 -3 -6 -6z"/>
<path d="M1538 1383 c6 -2 18 -2 25 0 6 3 1 5 -13 5 -14 0 -19 -2 -12 -5z"/>
<path d="M1448 1373 c12 -2 30 -2 40 0 9 3 -1 5 -23 4 -22 0 -30 -2 -17 -4z"/>
<path d="M1538 1363 c6 -2 18 -2 25 0 6 3 1 5 -13 5 -14 0 -19 -2 -12 -5z"/>
<path d="M1473 1353 c9 -2 23 -2 30 0 6 3 -1 5 -18 5 -16 0 -22 -2 -12 -5z"/>
<path d="M1163 1283 c9 -2 23 -2 30 0 6 3 -1 5 -18 5 -16 0 -22 -2 -12 -5z"/>
<path d="M1173 1253 c9 -2 25 -2 35 0 9 3 1 5 -18 5 -19 0 -27 -2 -17 -5z"/>
<path d="M1188 1223 c12 -2 32 -2 45 0 12 2 2 4 -23 4 -25 0 -35 -2 -22 -4z"/>
<path d="M1153 1113 c9 -2 23 -2 30 0 6 3 -1 5 -18 5 -16 0 -22 -2 -12 -5z"/>
<path d="M1163 1083 c9 -2 25 -2 35 0 9 3 1 5 -18 5 -19 0 -27 -2 -17 -5z"/>
<path d="M1670 1060 c-25 -11 -38 -19 -30 -19 8 0 33 8 55 18 51 25 34 25 -25
1z"/>
<path d="M1183 1053 c9 -2 25 -2 35 0 9 3 1 5 -18 5 -19 0 -27 -2 -17 -5z"/>
<path d="M1555 1030 c-27 -7 -27 -8 -5 -8 14 0 36 4 50 8 20 6 21 8 5 8 -11 0
-33 -4 -50 -8z"/>
<path d="M991 1017 c2 -1 13 -9 24 -17 19 -14 19 -14 6 3 -7 9 -18 17 -24 17
-6 0 -8 -1 -6 -3z"/>
<path d="M1458 1013 c12 -2 30 -2 40 0 9 3 -1 5 -23 4 -22 0 -30 -2 -17 -4z"/>
<path d="M1313 1003 c9 -2 23 -2 30 0 6 3 -1 5 -18 5 -16 0 -22 -2 -12 -5z"/>
<path d="M1675 989 c-22 -10 -29 -16 -15 -13 28 7 80 33 65 33 -5 0 -28 -9
-50 -20z"/>
<path d="M996 975 c-3 -9 -11 -13 -17 -9 -8 5 -9 3 -4 -5 6 -10 11 -9 23 3 9
8 13 18 10 21 -3 3 -8 -1 -12 -10z"/>
<path d="M1165 973 c-5 -15 -4 -16 6 -5 31 30 78 -4 58 -41 -11 -19 -44 -23
-54 -7 -3 6 -11 10 -16 10 -14 0 11 -24 33 -33 12 -4 24 2 37 19 16 21 18 30
9 50 -14 29 -62 34 -73 7z"/>
<path d="M1311 983 l65 -4 -4 -29 c-4 -28 -6 -29 -66 -33 l-61 -3 70 -2 70 -2
0 33 c0 27 4 32 24 32 34 0 51 -30 29 -52 -13 -12 -43 -18 -115 -23 l-98 -7
120 -1 c77 -1 115 2 105 8 -13 8 -13 10 0 14 8 3 31 7 50 9 l35 4 -40 2 c-36
3 -37 4 -15 11 25 8 25 8 2 9 -13 1 -20 6 -17 11 3 6 -1 10 -10 10 -9 0 -13 5
-10 10 4 6 -30 9 -97 8 -77 -1 -86 -3 -37 -5z"/>
<path d="M1525 980 l-40 -7 35 -1 c19 0 44 3 55 8 24 10 7 10 -50 0z"/>
<path d="M1617 983 c-4 -3 -7 -11 -7 -17 0 -6 5 -5 12 2 6 6 9 14 7 17 -3 3
-9 2 -12 -2z"/>
<path d="M1016 963 c-6 -14 -5 -15 5 -6 7 7 10 15 7 18 -3 3 -9 -2 -12 -12z"/>
<path d="M1687 974 c-4 -4 -39 -15 -79 -25 -40 -9 -65 -18 -54 -18 22 -1 136
28 156 40 13 7 13 8 -1 9 -9 0 -19 -3 -22 -6z"/>
<path d="M1211 953 c-1 -7 -9 -13 -18 -13 -13 0 -14 -3 -5 -12 15 -15 37 3 29
24 -4 9 -6 10 -6 1z"/>
<path d="M1412 939 c-10 -15 -10 -19 2 -19 15 0 29 27 18 34 -5 3 -13 -4 -20
-15z"/>
<path d="M1533 953 c9 -2 23 -2 30 0 6 3 -1 5 -18 5 -16 0 -22 -2 -12 -5z"/>
<path d="M1568 913 c6 -2 18 -2 25 0 6 3 1 5 -13 5 -14 0 -19 -2 -12 -5z"/>
<path d="M1503 903 c9 -2 25 -2 35 0 9 3 1 5 -18 5 -19 0 -27 -2 -17 -5z"/>
<path d="M1173 853 c15 -2 39 -2 55 0 15 2 2 4 -28 4 -30 0 -43 -2 -27 -4z"/>
<path d="M1608 793 c7 -3 16 -2 19 1 4 3 -2 6 -13 5 -11 0 -14 -3 -6 -6z"/>
<path d="M1548 783 c7 -3 16 -2 19 1 4 3 -2 6 -13 5 -11 0 -14 -3 -6 -6z"/>
<path d="M1650 780 c8 -5 20 -10 25 -10 6 0 3 5 -5 10 -8 5 -19 10 -25 10 -5
0 -3 -5 5 -10z"/>
<path d="M1478 773 c7 -3 16 -2 19 1 4 3 -2 6 -13 5 -11 0 -14 -3 -6 -6z"/>
<path d="M1598 773 c7 -3 16 -2 19 1 4 3 -2 6 -13 5 -11 0 -14 -3 -6 -6z"/>
<path d="M1588 753 c7 -3 16 -2 19 1 4 3 -2 6 -13 5 -11 0 -14 -3 -6 -6z"/>
<path d="M1628 743 c7 -3 16 -2 19 1 4 3 -2 6 -13 5 -11 0 -14 -3 -6 -6z"/>
<path d="M1578 733 c7 -3 16 -2 19 1 4 3 -2 6 -13 5 -11 0 -14 -3 -6 -6z"/>
<path d="M1518 723 c7 -3 16 -2 19 1 4 3 -2 6 -13 5 -11 0 -14 -3 -6 -6z"/>
<path d="M31 475 c-27 -32 -31 -43 -31 -96 0 -70 19 -112 58 -133 23 -12 31
-12 54 0 15 8 33 24 39 36 10 18 8 24 -7 35 -17 12 -21 11 -37 -9 -14 -17 -22
-20 -35 -11 -24 14 -29 120 -7 148 15 20 15 20 38 -8 20 -24 25 -26 41 -14 15
11 16 17 7 35 -14 26 -50 52 -72 52 -9 0 -31 -16 -48 -35z"/>
<path d="M248 481 c-32 -29 -32 -30 -36 -135 l-4 -106 32 0 c28 0 31 3 28 28
-3 23 1 27 25 30 24 3 27 0 27 -27 0 -26 4 -31 25 -31 l25 0 0 106 c0 106 0
106 -31 135 -39 36 -51 36 -91 0z m72 -93 c0 -48 -1 -49 -27 -46 -26 3 -28 5
-24 48 6 89 51 87 51 -2z"/>
<path d="M437 496 c-14 -11 -16 -19 -7 -40 5 -15 10 -70 10 -122 0 -94 0 -94
25 -94 l25 0 0 105 c0 88 3 107 16 112 26 10 34 -17 34 -119 0 -98 0 -98 25
-98 l25 0 0 108 c0 107 0 109 -30 137 -26 25 -33 27 -54 17 -16 -7 -28 -8 -31
-2 -8 13 -16 12 -38 -4z"/>
<path d="M634 496 c-8 -21 3 -36 27 -36 18 0 19 -8 19 -110 l0 -110 30 0 30 0
0 109 c0 106 1 110 23 113 14 2 22 10 22 23 0 18 -8 20 -73 23 -57 2 -74 0
-78 -12z"/>
<path d="M830 375 l0 -135 25 0 25 0 0 135 0 135 -25 0 -25 0 0 -135z"/>
<path d="M947 492 c-11 -12 -13 -22 -7 -32 5 -8 10 -61 10 -117 0 -103 0 -103
25 -103 24 0 24 1 27 108 3 99 4 107 23 107 19 0 20 -8 23 -107 3 -108 3 -108
28 -108 l25 0 -3 116 c-3 115 -4 117 -31 138 -24 17 -31 19 -49 7 -14 -9 -23
-10 -31 -2 -15 15 -21 14 -40 -7z"/>
<path d="M1167 496 c-15 -12 -16 -18 -8 -35 6 -11 11 -65 11 -120 l0 -101 25
0 c24 0 25 3 25 60 l0 60 30 0 30 0 0 -60 c0 -57 1 -60 25 -60 l25 0 0 135 0
135 -25 0 c-23 0 -25 -3 -25 -50 0 -49 -1 -50 -30 -50 -25 0 -30 4 -30 24 0
30 -17 76 -27 76 -5 0 -16 -7 -26 -14z"/>
<path d="M1409 481 c-27 -28 -29 -34 -29 -109 0 -79 0 -80 35 -111 20 -17 38
-31 40 -31 2 0 20 14 40 31 35 31 35 32 35 111 0 75 -2 81 -29 109 -16 16 -37
29 -46 29 -9 0 -30 -13 -46 -29z m69 -115 c-3 -63 -5 -71 -23 -71 -18 0 -20 8
-23 68 -3 75 10 106 35 86 10 -9 13 -31 11 -83z"/>
<path d="M1699 489 c-15 -11 -18 -18 -10 -23 7 -5 11 -46 11 -117 l0 -109 49
0 c39 0 56 6 80 26 30 25 31 29 31 106 0 76 -2 81 -30 108 -34 32 -95 36 -131
9z m99 -41 c7 -7 12 -40 12 -78 0 -65 -10 -90 -37 -90 -10 0 -13 22 -13 83 0
96 8 115 38 85z"/>
<path d="M1951 475 c-30 -35 -31 -38 -31 -135 0 -100 0 -100 25 -100 21 0 25
5 25 31 0 27 3 30 28 27 21 -2 28 -9 30 -30 3 -22 9 -28 28 -28 24 0 24 1 24
100 0 97 -1 100 -31 135 -17 19 -39 35 -49 35 -10 0 -32 -16 -49 -35z m69 -34
c5 -11 10 -38 10 -60 0 -39 -2 -41 -30 -41 -28 0 -30 2 -30 41 0 42 14 79 30
79 5 0 14 -9 20 -19z"/>
<path d="M2240 375 l0 -135 70 0 c63 0 70 2 70 20 0 17 -7 20 -45 20 l-45 0 0
115 0 115 -25 0 -25 0 0 -135z"/>
<path d="M2442 477 c-30 -31 -32 -37 -32 -106 0 -71 1 -75 36 -107 l36 -34 30
17 c42 25 58 62 58 132 0 53 -4 64 -31 96 -39 44 -56 44 -97 2z m68 -36 c15
-28 12 -114 -4 -136 -12 -16 -16 -17 -30 -6 -12 10 -16 31 -16 75 0 77 26 111
50 67z"/>
<path d="M2621 494 c-16 -12 -20 -19 -12 -27 7 -7 11 -55 11 -119 l0 -108 30
0 c30 0 30 1 30 55 0 47 3 55 19 55 19 0 31 -34 31 -86 0 -20 5 -24 30 -24
l29 0 -6 53 c-3 28 -12 59 -20 69 -13 14 -12 20 3 43 20 31 9 65 -31 91 -20
13 -31 15 -49 6 -14 -6 -27 -7 -33 -1 -5 5 -18 2 -32 -7z m97 -61 c2 -14 -4
-26 -17 -33 -23 -12 -23 -12 -23 25 0 36 0 37 20 33 9 -2 18 -13 20 -25z"/>
<path d="M2872 477 c-32 -33 -32 -34 -32 -135 l0 -102 25 0 c21 0 25 5 25 31
0 27 3 30 28 27 21 -2 28 -9 30 -30 3 -22 9 -28 28 -28 24 0 24 1 24 100 0 97
-1 100 -31 135 -39 44 -56 44 -97 2z m68 -36 c5 -11 10 -38 10 -60 0 -39 -2
-41 -30 -41 -28 0 -30 2 -30 41 0 42 14 79 30 79 5 0 14 -9 20 -19z"/>
<path d="M198 119 c6 -7 12 -28 12 -47 0 -19 4 -31 10 -27 20 12 11 64 -12 76
-19 9 -21 9 -10 -2z"/>
<path d="M271 80 c-1 -27 2 -50 7 -50 4 0 6 16 4 35 -3 21 0 35 7 35 6 0 11
-3 11 -7 1 -5 11 -21 24 -37 l24 -29 3 52 c2 28 1 51 -3 51 -5 0 -8 -14 -8
-31 l0 -31 -26 31 c-14 17 -29 31 -33 31 -4 0 -9 -22 -10 -50z"/>
<path d="M395 80 c0 -38 4 -50 15 -50 12 0 14 11 12 50 -5 67 -27 67 -27 0z"/>
<path d="M448 119 c6 -7 12 -25 12 -39 0 -14 -6 -32 -12 -39 -11 -11 -9 -12 8
-3 40 21 38 71 -3 86 -14 6 -16 5 -5 -5z"/>
<path d="M523 80 c0 -30 4 -50 11 -50 7 0 11 20 11 50 0 30 -4 50 -11 50 -7 0
-11 -20 -11 -50z"/>
<path d="M867 112 c-22 -24 -21 -45 1 -65 24 -22 39 -22 18 -1 -19 18 -20 38
-6 65 13 24 8 24 -13 1z"/>
<path d="M915 120 c3 -5 8 -10 11 -10 2 0 4 5 4 10 0 6 -5 10 -11 10 -5 0 -7
-4 -4 -10z"/>
<path d="M970 80 c0 -33 4 -50 13 -50 8 0 12 17 12 50 0 33 -4 50 -12 50 -9 0
-13 -17 -13 -50z"/>
<path d="M1075 80 c0 -33 4 -50 13 -50 6 0 12 10 12 22 l0 22 20 -22 c12 -12
26 -22 32 -22 6 0 1 11 -11 24 -14 15 -19 26 -12 31 15 9 14 32 -3 38 -9 4
-12 0 -9 -13 3 -10 0 -21 -6 -24 -7 -5 -11 3 -11 18 0 14 -6 26 -12 26 -9 0
-13 -17 -13 -50z"/>
<path d="M1193 81 c12 -27 25 -46 30 -42 10 10 -25 91 -40 91 -8 0 -4 -17 10
-49z"/>
<path d="M1243 108 c-2 -18 0 -20 7 -8 12 18 13 30 2 30 -4 0 -9 -10 -9 -22z"/>
<path d="M1298 80 c-2 -39 0 -50 12 -50 12 0 14 11 12 50 -5 65 -19 65 -24 0z"/>
<path d="M1345 120 c3 -5 8 -10 11 -10 2 0 4 5 4 10 0 6 -5 10 -11 10 -5 0 -7
-4 -4 -10z"/>
<path d="M1400 69 c0 -50 -3 -60 -15 -55 -8 3 -15 1 -15 -4 0 -14 26 -12 38 3
16 19 20 117 5 117 -9 0 -13 -19 -13 -61z"/>
<path d="M1638 80 c-2 -39 0 -50 12 -50 12 0 14 11 12 50 -5 65 -19 65 -24 0z"/>
<path d="M1696 105 c15 -23 15 -27 -1 -51 -16 -25 -16 -25 3 -15 37 20 35 70
-3 85 -13 5 -13 2 1 -19z"/>
<path d="M1765 80 c0 -43 3 -50 20 -50 12 0 16 3 8 8 -6 4 -10 26 -9 50 1 24
-2 42 -8 42 -7 0 -11 -21 -11 -50z"/>
<path d="M1873 123 c-19 -7 -16 -27 7 -48 12 -10 18 -25 16 -32 -3 -7 -1 -13
5 -13 21 0 21 32 -1 55 -12 13 -19 28 -15 34 7 12 6 12 -12 4z"/>
<path d="M1900 120 c0 -5 5 -10 11 -10 5 0 7 5 4 10 -3 6 -8 10 -11 10 -2 0
-4 -4 -4 -10z"/>
<path d="M1967 112 c-22 -24 -21 -45 1 -65 24 -22 39 -22 18 -1 -19 18 -20 38
-6 65 13 24 8 24 -13 1z"/>
<path d="M2015 120 c3 -5 8 -10 11 -10 2 0 4 5 4 10 0 6 -5 10 -11 10 -5 0 -7
-4 -4 -10z"/>
<path d="M2070 80 c0 -33 4 -50 13 -50 8 0 12 17 12 50 0 33 -4 50 -12 50 -9
0 -13 -17 -13 -50z"/>
<path d="M2248 119 c-25 -14 -24 -65 1 -79 25 -13 42 -13 19 1 -21 12 -24 59
-6 77 15 15 9 15 -14 1z"/>
<path d="M2355 80 c0 -38 4 -50 15 -50 12 0 14 11 12 50 -5 67 -27 67 -27 0z"/>
<path d="M2460 80 c0 -33 4 -50 13 -50 8 0 11 15 9 50 -5 65 -22 65 -22 0z"/>
<path d="M2675 80 c0 -27 5 -50 10 -50 6 0 10 23 10 50 0 28 -4 50 -10 50 -5
0 -10 -22 -10 -50z"/>
<path d="M2723 112 c22 -24 22 -58 0 -71 -10 -6 -13 -11 -6 -11 18 0 43 29 43
50 0 20 -25 50 -42 50 -6 0 -4 -8 5 -18z"/>
<path d="M145 100 c-8 -26 2 -57 22 -64 13 -5 14 -4 3 9 -7 8 -10 28 -8 45 5
34 -7 41 -17 10z"/>
<path d="M710 110 c0 -6 7 -24 15 -39 8 -16 11 -31 8 -35 -4 -3 2 -6 11 -6 13
0 16 5 11 18 -4 9 -12 29 -17 45 -10 26 -28 37 -28 17z"/>
<path d="M1490 110 c0 -6 7 -24 15 -39 8 -16 11 -31 8 -35 -4 -3 2 -6 11 -6
10 0 16 3 14 8 -2 4 -10 24 -18 45 -13 35 -30 50 -30 27z"/>
<path d="M2571 81 c-24 -46 -25 -51 -11 -51 6 0 10 3 9 8 -2 14 13 52 21 52 5
0 11 -13 15 -30 4 -17 13 -30 20 -30 10 0 8 11 -7 43 -11 23 -22 44 -24 45 -1
2 -12 -14 -23 -37z"/>
<path d="M2816 105 c-3 -8 -2 -15 3 -15 8 0 24 -38 22 -52 -1 -5 6 -8 15 -8 9
0 14 3 12 8 -2 4 -10 24 -18 45 -15 40 -24 46 -34 22z"/>
<path d="M1805 80 c3 -5 8 -10 11 -10 2 0 4 5 4 10 0 6 -5 10 -11 10 -5 0 -7
-4 -4 -10z"/>
<path d="M2290 55 c0 -8 5 -15 10 -15 6 0 10 7 10 15 0 8 -4 15 -10 15 -5 0
-10 -7 -10 -15z"/>
<path d="M675 40 c-3 -5 -1 -10 4 -10 6 0 11 5 11 10 0 6 -2 10 -4 10 -3 0 -8
-4 -11 -10z"/>
<path d="M1345 40 c-3 -5 -1 -10 4 -10 6 0 11 5 11 10 0 6 -2 10 -4 10 -3 0
-8 -4 -11 -10z"/>
<path d="M1455 40 c-3 -5 -1 -10 4 -10 6 0 11 5 11 10 0 6 -2 10 -4 10 -3 0
-8 -4 -11 -10z"/>
<path d="M2405 40 c-3 -5 -1 -10 4 -10 6 0 11 5 11 10 0 6 -2 10 -4 10 -3 0
-8 -4 -11 -10z"/>
<path d="M2785 40 c-3 -5 -1 -10 4 -10 6 0 11 5 11 10 0 6 -2 10 -4 10 -3 0
-8 -4 -11 -10z"/>
</g>
</svg>
