<svg id="visual" viewBox="0 0 1024 100" width="1024" height="100" xmlns="http://www.w3.org/2000/svg" xmlns:xlink="http://www.w3.org/1999/xlink" version="1.1"><rect x="0" y="0" width="1024" height="100" fill="#002233"></rect><path d="M0 78L24.3 75.8C48.7 73.7 97.3 69.3 146.2 70.7C195 72 244 79 292.8 79.5C341.7 80 390.3 74 439 70C487.7 66 536.3 64 585 64.7C633.7 65.3 682.3 68.7 731.2 72.3C780 76 829 80 877.8 79.2C926.7 78.3 975.3 72.7 999.7 69.8L1024 67L1024 101L999.7 101C975.3 101 926.7 101 877.8 101C829 101 780 101 731.2 101C682.3 101 633.7 101 585 101C536.3 101 487.7 101 439 101C390.3 101 341.7 101 292.8 101C244 101 195 101 146.2 101C97.3 101 48.7 101 24.3 101L0 101Z" fill="#0066FF" stroke-linecap="round" stroke-linejoin="miter"></path></svg>