<svg id="visual" viewBox="0 0 1024 100" width="1024" height="100" xmlns="http://www.w3.org/2000/svg" xmlns:xlink="http://www.w3.org/1999/xlink" version="1.1"><rect x="0" y="0" width="1024" height="100" fill="#002233"></rect><path d="M0 20L24.3 22.2C48.7 24.3 97.3 28.7 146.2 27.3C195 26 244 19 292.8 18.5C341.7 18 390.3 24 439 28C487.7 32 536.3 34 585 33.3C633.7 32.7 682.3 29.3 731.2 25.7C780 22 829 18 877.8 18.8C926.7 19.7 975.3 25.3 999.7 28.2L1024 31L1024 0L999.7 0C975.3 0 926.7 0 877.8 0C829 0 780 0 731.2 0C682.3 0 633.7 0 585 0C536.3 0 487.7 0 439 0C390.3 0 341.7 0 292.8 0C244 0 195 0 146.2 0C97.3 0 48.7 0 24.3 0L0 0Z" fill="#0066FF" stroke-linecap="round" stroke-linejoin="miter"></path></svg>