<?xml version="1.0" encoding="UTF-8" standalone="no"?>
<svg
   xmlns:dc="http://purl.org/dc/elements/1.1/"
   xmlns:cc="http://creativecommons.org/ns#"
   xmlns:rdf="http://www.w3.org/1999/02/22-rdf-syntax-ns#"
   xmlns:svg="http://www.w3.org/2000/svg"
   xmlns="http://www.w3.org/2000/svg"
   xmlns:xlink="http://www.w3.org/1999/xlink"
   xmlns:sodipodi="http://sodipodi.sourceforge.net/DTD/sodipodi-0.dtd"
   xmlns:inkscape="http://www.inkscape.org/namespaces/inkscape"
   version="1.1"
   width="595.27557"
   height="841.88977"
   id="svg74"
   viewBox="0 0 595.27557 841.88977"
   sodipodi:docname="skol-beats-sense-seeklogo.com.cdr">
  <metadata
     id="metadata80">
    <rdf:RDF>
      <cc:Work
         rdf:about="">
        <dc:format>image/svg+xml</dc:format>
        <dc:type
           rdf:resource="http://purl.org/dc/dcmitype/StillImage" />
      </cc:Work>
    </rdf:RDF>
  </metadata>
  <defs
     id="defs78" />
  <sodipodi:namedview
     pagecolor="#ffffff"
     bordercolor="#666666"
     borderopacity="1"
     objecttolerance="10"
     gridtolerance="10"
     guidetolerance="10"
     inkscape:pageopacity="0"
     inkscape:pageshadow="2"
     inkscape:window-width="640"
     inkscape:window-height="480"
     id="namedview76" />
  <g
     id="Layer1000">
    <path
       d="m 1.5274,227.6632 v 386.5633 q 0,60.1116 60.1116,60.1116 h 471.9973 q 60.1116,0 60.1116,-60.1116 V 227.6632 q 0,-60.1115 -60.1116,-60.1115 H 61.639 q -60.1116,0 -60.1116,60.1115 z"
       style="fill:#2e3b97;fill-rule:evenodd"
       id="path2" />
    <g
       id="Layer1001">
      <defs
         id="defs10">
        <linearGradient
           id="grad1">
          <stop
             offset="0%"
             stop-color="#fefefe"
             stop-opacity="1.0000"
             id="stop4" />
          <stop
             offset="100%"
             stop-color="#a5a6ab"
             stop-opacity="1.0000"
             id="stop6" />
        </linearGradient>
        <linearGradient
           xlink:href="#grad1"
           id="grad2"
           x1="0"
           y1="0"
           x2="0"
           y2="1"
           gradientTransform="rotate(-87,0.5,0.5)"
           gradientUnits="objectBoundingBox" />
      </defs>
      <path
         d="m 203.0579,474.1825 23.2284,-107.9043 27.6378,0.2934 -5.5884,41.4584 37.3412,-41.4573 28.8124,0.8823 -45.5722,50.8651 27.9601,46.1079 9.38,13.2827 -25.2853,-1.1757 c -16.8854,-0.3056 -26.1065,-29.2136 -37.9291,-47.6303 l -10.289,44.3955 c 0,0 -30.8727,0.8823 -29.6959,0.8823 z"
         style="fill:url(#grad2)"
         id="path12" />
      <defs
         id="defs19">
        <linearGradient
           id="grad3">
          <stop
             offset="0%"
             stop-color="#a5a6ab"
             stop-opacity="1.0000"
             id="stop14" />
          <stop
             offset="100%"
             stop-color="#d3d6d9"
             stop-opacity="1.0000"
             id="stop16" />
        </linearGradient>
      </defs>
      <path
         d="m 203.7924,389.9478 6.0274,-21.6116 c -33.9875,-9.7189 -76.8383,-6.7186 -74.6802,32.6362 0.699,12.7372 26.0276,30.8627 36.0366,43.4431 8.7955,11.0547 -14.2984,30.1871 -40.7405,-0.6634 l -6.7642,27.7845 c 30.0704,9.5912 79.0697,9.2867 77.3273,-34.3997 -3.7361,-17.3588 -19.2302,-27.2423 -33.812,-38.8103 -11.358,-9.0111 0.9046,-22.1861 12.4071,-21.6382 8.1666,0.3889 24.3952,13.1104 24.1985,13.2594 z"
         style="fill:url(#grad3)"
         id="path21" />
      <defs
         id="defs31">
        <linearGradient
           id="grad4">
          <stop
             offset="0.0000%"
             stop-color="#e5e5e6"
             stop-opacity="1.0000"
             id="stop23" />
          <stop
             offset="44.0000%"
             stop-color="#aeafb4"
             stop-opacity="1.0000"
             id="stop25" />
          <stop
             offset="100.0000%"
             stop-color="#ffffff"
             stop-opacity="1.0000"
             id="stop27" />
        </linearGradient>
        <linearGradient
           xlink:href="#grad4"
           id="grad5"
           x1="0"
           y1="0"
           x2="0"
           y2="1"
           gradientTransform="rotate(-89,0.5,0.5)"
           gradientUnits="objectBoundingBox" />
      </defs>
      <path
         d="m 300.1942,449.1194 c 1.448,-9.9667 3.3049,-18.6434 5.5296,-25.7242 22.4627,-71.4877 104.6961,-27.1789 45.3355,18.8867 l 1.0646,-18.0822 -43.4409,36.6434 c 20.3536,19.9313 40.7384,28.1168 59.1339,26.9755 l -11.6503,-14.4073 c 98.3498,-44.5154 26.9278,-152.1731 -41.6984,-94.5249 -15.433,12.9638 -23.3462,34.6742 -20.3203,54.9356 1.0079,6.7553 3.5627,12.6982 6.0463,15.2974 z"
         style="fill:url(#grad5)"
         id="path33" />
      <defs
         id="defs41">
        <linearGradient
           id="grad6">
          <stop
             offset="0%"
             stop-color="#ebebec"
             stop-opacity="1.0000"
             id="stop35" />
          <stop
             offset="100%"
             stop-color="#b0b2b6"
             stop-opacity="1.0000"
             id="stop37" />
        </linearGradient>
        <linearGradient
           xlink:href="#grad6"
           id="grad7"
           x1="0"
           y1="0"
           x2="0"
           y2="1"
           gradientTransform="rotate(-52,0.5,0.5)"
           gradientUnits="objectBoundingBox" />
      </defs>
      <path
         d="m 420.4478,367.4161 28.998,-0.2189 -18.14,86.0539 c 13.035,0.3422 29.2858,-0.7579 40.2994,-6.7798 l -11.8703,25.3598 -60.5674,0.5879 c 1.7979,0 21.107,-105.0018 21.2803,-105.0029 z"
         style="fill:url(#grad7)"
         id="path43" />
      <defs
         id="defs50">
        <linearGradient
           id="grad8">
          <stop
             offset="0%"
             stop-color="#a5a6ab"
             stop-opacity="1.0000"
             id="stop45" />
          <stop
             offset="100%"
             stop-color="#e0e0e2"
             stop-opacity="1.0000"
             id="stop47" />
        </linearGradient>
      </defs>
      <path
         d="m 287.2571,202.0703 c 97.9486,-1.6857 150.1728,89.6777 36.09,129.5492 l 12.9004,22.6039 c -29.4136,-7.2276 -58.4449,-19.6391 -85.4115,-38.627 l 67.5505,-41.3995 -6.0419,24.423 -1.3335,-13.3683 -44.0787,27.2478 c 15.0329,11.7436 30.7671,20.178 47.2013,25.5476 l -4.7772,-14.5163 c 31.8839,-5.5562 53.3465,-18.2533 64.8679,-40.2438 7.8654,-15.0107 5.2595,-32.025 -5.9752,-45.8956 -17.1143,-21.1281 -51.8308,-36.1833 -80.9921,-35.321 z"
         style="fill:url(#grad8)"
         id="path52" />
      <defs
         id="defs60">
        <linearGradient
           id="grad9">
          <stop
             offset="0%"
             stop-color="#a5a6ab"
             stop-opacity="1.0000"
             id="stop54" />
          <stop
             offset="100%"
             stop-color="#e6e6e7"
             stop-opacity="1.0000"
             id="stop56" />
        </linearGradient>
        <linearGradient
           xlink:href="#grad9"
           id="grad10"
           x1="0"
           y1="0"
           x2="0"
           y2="1"
           gradientTransform="rotate(90,0.5,0.5)"
           gradientUnits="objectBoundingBox" />
      </defs>
      <path
         d="m 226.3796,297.3253 c -5.1984,-101.3735 153.4399,-88.6786 113.0139,-12.496 33.8941,-30.7271 -5.6363,-70.7708 -49.6161,-67.0048 -43.9798,3.766 -79.4242,41.9829 -63.3978,79.5008 z"
         style="fill:url(#grad10)"
         id="path62" />
      <text
         x="158.03571"
         y="586.48248"
         id="text66"><tspan
           font-family="Dotum"
           font-size="103.5px"
           fill="#ffffff"
           id="tspan64">BEATS</tspan></text>
      <text
         x="187.4843"
         y="639.85522"
         id="text70"><tspan
           font-family="Dotum"
           font-size="66.5px"
           fill="#ffffff"
           id="tspan68">senses</tspan></text>
    </g>
  </g>
</svg>
